<?xml version="1.0" encoding="UTF-8"?>
<svg id="Layer_2" data-name="Layer 2" xmlns="http://www.w3.org/2000/svg" viewBox="0 0 305.75 256.98">
  <g id="Layer_2-2" data-name="Layer 2">
    <g>
      <path d="M2.08,113.41c-5.03-13.71,2.39-33.04,15.58-39.41,12.91-5.72,25.93,3.56,37.72,9.4,5.76,2.89,12.1,6.18,18.38,8.17,19.35,6.57,40.71,4.48,59.49-3.15,14.97-5.82,28.12-15.16,43.84-16.14,20.84-1.31,50.79,5.21,53.72,28.74,1.3,12.89-8.31,24.97-19.09,31.24-13.98,8.31-31.4,9.7-46.97,4.84-30.32-9.47-53.37-33.18-89.28-33.1-8.99.02-18.67,3.03-26.72,7.15-8.94,4.27-14.6,16.65-24.34,17.36-8.91.96-19.59-6.81-22.26-14.92l-.06-.17Z" style="fill: #fff; stroke: #fff; stroke-miterlimit: 10;"/>
      <path d="M47.8,125.29c6.6-9.95,18.88-13.29,31.02-12.01,19.02,2.2,36.08,14.61,53.22,22.62,12.8,6.27,26.67,10.89,41.13,11.41,13.76.5,28.09-1.56,40.68-6.98,22.16-9.3,39.01-34.65,65.23-29.01,45.69,10.55,26.37,78.93-18.09,63.94-6.5-2.25-13.52-7.29-20.42-10.59-6.78-3.29-14.21-6.75-21.53-8.51-20.84-5.24-41.95.54-62.21,5.87-13.68,3.88-26.67,10.01-40.95,11.25-23.13,1.9-55.8-2.65-67.7-24.87-3.87-7.49-5.01-15.93-.46-23l.09-.14Z" style="fill: #fff; stroke: #fff; stroke-miterlimit: 10;"/>
      <path d="M18.02,146.63c2.13-6.7,10.44-11.12,16-5.96,4.05,3.42,5.3,8.8,7.7,13.65,7.11,14.35,22.7,19.34,37.26,21.74,4.39,1.28,23.68,1.41,23.29,5.89.01.63-1.01,1.54-1.69,1.89-2.1,1.17-5.53,2.25-7.92,2.71-11.42,2.03-22.9,2.04-34.46-.52-10.25-2.27-20.59-5.24-28.75-12.01s-15.04-16.26-11.49-27.23l.06-.17Z" style="fill: #fff; stroke: #fff; stroke-miterlimit: 10;"/>
      <path d="M268.26,185.95c1.14.28,2.24.7,3.21,1.36,6.4,4.39,4.47,14.17-1.03,21.08-2.88,3.62-6.76,6.44-10.75,7.6-29.23,9.71-62.98-20.79-92.49-19.89-14.51.28-29.21,9.64-44.22,7.08-14.11-2.38-15.47-14.97-1.99-20.44,9.39-3.82,21.16-2.55,31.07-4.82l.2-.04c6.38-1.34,11.94-3.93,17.92-6.47,24.46-11.62,40.76-12.03,63.29,1.49.46.27,10.85,5.04,16.29,7.52,1.59.72,3.88,1.48,5.84,2.15,1.24.42,2.49.79,3.76,1.12l8.89,2.29Z" style="fill: #fff; stroke: #fff; stroke-miterlimit: 10;"/>
      <path d="M173.59,202.09c14.45,2.05,31.46,9.24,42.05,19.85,7.74,6.73,18.04,23.57,8.41,32.72-3.02,2.87-8.36,1.84-12.3.22-13.75-6.1-18.15-23.97-28.66-34.09-5.15-5.69-13.73-7.57-20.21-11.11-9.65-6.2,5.54-8.64,10.55-7.62l.16.02Z" style="fill: #fff; stroke: #fff; stroke-miterlimit: 10;"/>
      <path d="M25.94,51.33c1.12-10.67,13.03-21.68,22.4-26.85,11.36-6.28,24.39-2.67,35.56-6.15,9.95-3,17.29-11.4,27.56-14.96,7.59-2.56,18.67-4.54,26.05-.8,6.73,4.22-1.14,10.63-6.63,13.21-11.19,5.57-25.59,4.35-36.77,10.21-16.2,7.65-22.99,27.28-38.89,35.41-5.76,2.98-12.89,4.27-19.14,2.67-5.97-1.49-10.57-6.13-10.15-12.59v-.15Z" style="fill: #fff; stroke: #fff; stroke-miterlimit: 10;"/>
      <path d="M144.57,19.35c-.45-.26-.56-.88-.21-1.26,2.33-2.56,12.84-9.63,16.29-10.95,19.44-6.53,40.91-6.89,59.53,2.12,11.16,5.16,21.83,13.01,28.89,22.47,7.27,9.12,12.39,22.87-1.43,28.3-12.63,4.58-27.09-.73-39.07-5.68-14.62-5.97-27.01-15.05-40.24-22.9-4.82-2.78-10.23-6.14-15.07-8.71l-8.69-3.39Z" style="fill: #fff; stroke: #fff; stroke-miterlimit: 10;"/>
      <path d="M82.56,49.05c11.86-13.5,32.23-20.91,50.47-19.58,11.25,1.04,22.04,6.2,31.95,11.21,23.06,11.7,45.98,29.84,73.26,28.8,2.42-.08,4.71-.31,6.83-.68,7.17-1.18,12.44-4.33,19.34-4.4,12.13-.33,24.39,9.73,28.71,20.86,2.09,5.09,2.58,12.07-1.24,16.11-3.7,4.14-11.1,3.8-17.29,2.56-14.92-2.75-26.23-14.17-38.18-22.39-14.06-9.15-31.12-15.15-49.06-17.09-17.87-1.79-34.18,2.36-49.45,10.6-9.83,4.89-20.42,9.97-31.28,10.91-11.95,1.29-26.71-2.26-28.53-15.93-.95-7.61.32-14.82,4.4-20.9l.08-.1Z" style="fill: #fff; stroke: #fff; stroke-miterlimit: 10;"/>
    </g>
  </g>
</svg>