<?xml version="1.0" encoding="UTF-8"?>
<svg id="Layer_2" data-name="Layer 2" xmlns="http://www.w3.org/2000/svg" viewBox="0 0 220.04 222.15">
  <g id="Layer_2-2" data-name="Layer 2">
    <path d="M217.55,109.93c-5.98-7.33-15.53-13.93-24-18.58-11.19-5.99-29.16-14.94-42.05-20.23-4.2-1.7-8.72-3.47-13.04-5.1-8.35-3.01-18.43-6.91-23.37,1.69-3.29,8.67,6.71,14.09,10.94,20.43,2.87,4.37-.08,8.25-5.24,8.21-2.77.06-5.51-.51-8.25-1.05-12.28-2.45-22.19-7.75-33.09-13.39-10.3-5.38-20.73-10.92-30.16-17.5-7.39-4.86-15.71-10.69-24.85-10.28-12.27.81-25.45,12.1-23.8,25.62.91,11.38,6.48,20.28,17.96,21.81,9.21,2.06,19.63-.27,28.99-1.51,14.17-1.57,26.09-1.17,38.6,2.12,13.47,3.79,28.94,8.27,38.32,19.21,1.64,1.97,2.66,3.85,2.57,5.39.07,2.39-3.51,4.02-6.8,4.4-10.32,1.26-18.41-2.86-28.18-7.17-13.07-5.43-24.99-11.75-39.89-12.76-16.51-.33-36.62,4.55-45.14,18.49-10,15.4-6.2,37.09,12.78,42.49,7.18,2.57,15.67,1.99,22.4-1.61,11-5.48,31.98-18.64,46.86-22.26,8.53-1.8,24.64-4.55,31.99-.03,8.34,5.24-.83,12.12-1.74,18.64,0,8.27,12.63,5.8,17.46,3.39,14.58-6.35,45.89-21.88,61.45-30.79,6.34-3.69,12.76-8.08,17.67-13.71,4.42-4.83,4.5-10.65,1.66-15.84l-.06-.1Z" style="fill: #fff; stroke: #fff; stroke-miterlimit: 10;"/>
    <path d="M46.85,191.31c.66-14.3,16.48-22.44,29.65-21.67,13.12.15,23.24,7,35.76,12.18,10.71,4.56,22.61,7.2,34.14,4.72,13.97-2.58,24.92-12.54,35.54-21.51,7-5.65,13.48-11.28,22.01-12.91,4.65-.81,8.52.68,9.72,3.48,3.46,9.25-18.61,25.54-25.77,30.86-9.92,7.1-20.67,12.96-31.17,18.23-14.74,7.14-27.36,13.31-42.13,16.01-19.03,2.53-46.42.69-60.34-13.8-4.35-4.5-7.53-9.89-7.41-15.43v-.16Z" style="fill: #fff; stroke: #fff; stroke-miterlimit: 10;"/>
    <path d="M43.8,30.84c.66,14.3,16.48,22.44,29.65,21.67,13.12-.15,23.82-.99,36.34-6.17,10.71-4.56,25.62-7.84,37.15-5.36,13.97,2.58,21.33,7.17,31.95,16.14,7,5.65,16.22,16.49,22.56,22.41,3.89,3.64,11.32,4.46,12.51,1.66,3.46-9.25-5.99-24.55-29.91-44.81-10.55-8.94-21.41-14.55-31.91-19.83-14.74-7.14-25.82-12.4-40.59-15.1-19.03-2.53-46.42-.69-60.34,13.8-4.35,4.5-7.53,9.89-7.41,15.43v.16Z" style="fill: #fff; stroke: #fff; stroke-miterlimit: 10;"/>
  </g>
</svg>