<?xml version="1.0" encoding="UTF-8"?>
<svg id="Layer_2" data-name="Layer 2" xmlns="http://www.w3.org/2000/svg" viewBox="0 0 206.7 205.9">
  <g id="Layer_2-2" data-name="Layer 2">
    <path d="M84.51,51.82c-14.66,4.69-29.65,9.38-45.93,8.52-10.44-.63-19.77-3.59-27.39-9.79C2.04,43.23-2.42,30.74,2.58,20,7.65,8.83,20.16,2.74,31.98,1.1c22.52-3.05,43.06,6.1,64.12,13.39,11.24,3.86,23.08,6.19,35,5.7,21.99-.39,45.57-9.84,66.03,1.21,8.72,4.9,12.07,15.23,3.84,22.41-17.55,14.15-46.18,1.04-67.06,1.05-17.19-.54-33.66,2.28-49.25,6.91l-.15.05Z" style="fill: #fff; stroke: #fff; stroke-miterlimit: 10;"/>
    <path d="M122.49,121.57c14.66,4.69,29.78,12.18,46.06,11.32,10.44-.63,21.1-1.84,28.72-8.04,9.14-7.32,11.56-20.51,5.87-30.89s-22.2-16.59-33.96-14.55c-22.09,3.83-47.36,13.79-59.62,15.7s-21.36,1.92-33.57-.51c-21.57-4.28-45.66-10.86-66.12.18-8.72,4.9-12.07,15.23-3.84,22.41,17.55,14.15,39.83,10.21,61.4,4.6,16.65-4.33,39.3-4.88,54.89-.26l.15.05Z" style="fill: #fff; stroke: #fff; stroke-miterlimit: 10;"/>
    <path d="M84.77,194.02c-14.66,4.69-29.78,12.18-46.06,11.32-10.44-.63-21.1-1.84-28.72-8.04-9.14-7.32-11.43-13.8-5.74-24.19,5.87-10.72,23.87-14.68,37.4-14.04,22.39,1.06,42.64,8.68,54.89,10.6,11.74,1.84,22.51,1.15,34.72-1.28,21.57-4.28,45.79-17.81,66.26-6.77,8.72,4.9,11.81,22.05,3.57,29.23-17.55,14.15-39.71,8.99-61.28,3.38-16.65-4.33-39.3-4.88-54.89-.26l-.15.05Z" style="fill: #fff; stroke: #fff; stroke-miterlimit: 10;"/>
  </g>
</svg>